<svg xmlns="http://www.w3.org/2000/svg" viewBox="0 0 100 100">
  <rect fill="#001E36" width="100" height="100" rx="10"/>
  <path fill="#31A8FF" d="M39.5 51.5h-6.2v15.7h6.2c6.3 0 9.1-3.2 9.1-7.9 0-4.6-2.8-7.8-9.1-7.8zM39.5 34.5h-6.2v12.3h6.2c5.3 0 7.7-2.7 7.7-6.2s-2.4-6.1-7.7-6.1z"/>
  <path fill="#31A8FF" d="M25.5 78.4V34.5h14c8.4 0 13.6 4.9 13.6 12.2 0 4.7-2.2 8.3-5.8 10.2 4.8 1.7 7.6 5.9 7.6 11.2 0 8.1-5.8 13.3-14.9 13.3h-14.5zm49-32.1c-3.5 0-6.3 1.8-6.8 4.5h13.3c-.3-2.7-2.8-4.5-6.5-4.5zm-6.8 11.3c.5 2.9 3.3 4.7 7.1 4.7 3.3 0 5.7-1.2 7.1-3.3h6.9c-1.9 5.7-7.1 9.1-14.2 9.1-9.4 0-15.3-6.1-15.3-15.4 0-9.4 6-15.6 15-15.6s14.7 6.2 14.7 15.6v2.2H67.7v2.7z"/>
</svg>