<svg width="32" height="32" viewBox="0 0 32 32" fill="none" xmlns="http://www.w3.org/2000/svg">
  <path d="M18 8h3v3h-3V8zM14 8h3v3h-3V8zM10 8h3v3h-3V8zM6 12h3v3H6v-3zM10 12h3v3h-3v-3zM14 12h3v3h-3v-3zM18 12h3v3h-3v-3zM10 16h3v3h-3v-3zM14 16h3v3h-3v-3z" fill="#2496ED"/>
  <path d="M26.5 12.5c-.4-.3-1.3-.4-2-.4-.4 0-.8 0-1.2.1-.3-2-1.7-3.7-3.8-5.2l-.8-.5-.5.8c-.9 1.4-1.2 3.4-.8 5 .2.7.5 1.4.9 2H6.8C5.8 16 5 17.8 5 19.5c0 3.4 2.8 6.2 6.2 6.2 5.7 0 10.3-2.5 12.4-7.9 1.4.1 4.4 0 5.9-3l.2-.5-.4-.3z" fill="#2496ED"/>
</svg>