
<svg width="32" height="32" viewBox="0 0 32 32" fill="none" xmlns="http://www.w3.org/2000/svg">
  <path d="M16 2.667C8.636 2.667 2.667 8.636 2.667 16c0 7.364 5.969 13.333 13.333 13.333 7.364 0 13.333-5.969 13.333-13.333C29.333 8.636 23.364 2.667 16 2.667z" fill="#FE4F7F"/>
  <path d="M21.333 12.667c0 2.946-2.387 5.333-5.333 5.333s-5.333-2.387-5.333-5.333S13.054 7.334 16 7.334s5.333 2.387 5.333 5.333z" fill="white"/>
  <path d="M16 19.334c-4.42 0-8 2.013-8 4.5v1.833h16v-1.833c0-2.487-3.58-4.5-8-4.5z" fill="white"/>
</svg>
