<svg width="32" height="32" viewBox="0 0 32 32" fill="none" xmlns="http://www.w3.org/2000/svg">
  <path d="M16 0C7.164 0 0 7.164 0 16s7.164 16 16 16 16-7.164 16-16S24.836 0 16 0zm5.824 22.046c-.392.774-1.042 1.366-1.88 1.714-.838.348-1.788.422-2.67.21-.882-.212-1.674-.708-2.274-1.424-.6-.716-.962-1.614-1.042-2.558-.08-.944.124-1.89.586-2.714.462-.824 1.17-1.476 2.04-1.876.87-.4 1.846-.532 2.794-.378.948.154 1.822.576 2.504 1.214.682.638 1.156 1.46 1.364 2.368.208.908.142 1.858-.19 2.724l-.232.72z" fill="#6B7280"/>
</svg>